<?xml version="1.0" encoding="UTF-8" standalone="no"?>
<!-- Created with Inkscape (http://www.inkscape.org/) -->

<svg
   xmlns:dc="http://purl.org/dc/elements/1.1/"
   xmlns:cc="http://creativecommons.org/ns#"
   xmlns:rdf="http://www.w3.org/1999/02/22-rdf-syntax-ns#"
   xmlns:svg="http://www.w3.org/2000/svg"
   xmlns="http://www.w3.org/2000/svg"
   xmlns:sodipodi="http://sodipodi.sourceforge.net/DTD/sodipodi-0.dtd"
   xmlns:inkscape="http://www.inkscape.org/namespaces/inkscape"
   width="744.09448819"
   height="1052.3622047"
   id="svg2"
   version="1.1"
   inkscape:version="0.48.2 r9819"
   sodipodi:docname="1d_2d_mesh_examples.pdf">
  <defs
     id="defs4" />
  <sodipodi:namedview
     id="base"
     pagecolor="#ffffff"
     bordercolor="#666666"
     borderopacity="1.0"
     inkscape:pageopacity="0.0"
     inkscape:pageshadow="2"
     inkscape:zoom="1.4142136"
     inkscape:cx="365.48824"
     inkscape:cy="741.89188"
     inkscape:document-units="px"
     inkscape:current-layer="layer1"
     showgrid="true"
     showguides="false"
     inkscape:guide-bbox="true"
     inkscape:window-width="1280"
     inkscape:window-height="776"
     inkscape:window-x="0"
     inkscape:window-y="24"
     inkscape:window-maximized="1">
    <sodipodi:guide
       orientation="1,0"
       position="100,820"
       id="guide2985" />
    <sodipodi:guide
       orientation="1,0"
       position="660,780"
       id="guide2987" />
    <sodipodi:guide
       orientation="1,0"
       position="155,880"
       id="guide3828" />
    <sodipodi:guide
       orientation="1,0"
       position="363.45288,883.17637"
       id="guide3234" />
    <sodipodi:guide
       orientation="1,0"
       position="130,890"
       id="guide4097" />
    <sodipodi:guide
       orientation="0,1"
       position="155,942"
       id="guide4283" />
    <sodipodi:guide
       orientation="0,1"
       position="186.67619,826.60782"
       id="guide4285" />
  </sodipodi:namedview>
  <metadata
     id="metadata7">
    <rdf:RDF>
      <cc:Work
         rdf:about="">
        <dc:format>image/svg+xml</dc:format>
        <dc:type
           rdf:resource="http://purl.org/dc/dcmitype/StillImage" />
        <dc:title></dc:title>
      </cc:Work>
    </rdf:RDF>
  </metadata>
  <g
     inkscape:label="Layer 1"
     inkscape:groupmode="layer"
     id="layer1">
    <flowRoot
       xml:space="preserve"
       id="flowRoot3236"
       style="fill:black;stroke:none;stroke-opacity:1;stroke-width:1px;stroke-linejoin:miter;stroke-linecap:butt;fill-opacity:1;font-family:Sans;font-style:normal;font-weight:normal;font-size:40px;line-height:125%;letter-spacing:0px;word-spacing:0px"><flowRegion
         id="flowRegion3238"><rect
           id="rect3240"
           width="479.07248"
           height="168.28178"
           x="12.128417"
           y="70.718414" /></flowRegion><flowPara
         id="flowPara3242" /></flowRoot>    <text
       xml:space="preserve"
       style="font-size:40px;font-style:normal;font-weight:normal;line-height:125%;letter-spacing:0px;word-spacing:0px;fill:#000000;fill-opacity:1;stroke:none;font-family:Sans"
       x="73.528526"
       y="15.382507"
       id="text3244"
       sodipodi:linespacing="125%"><tspan
         sodipodi:role="line"
         id="tspan3246" /></text>
    <g
       id="g4265"
       transform="translate(-70,-15)">
      <path
         inkscape:connector-curvature="0"
         id="path2993"
         d="m 155,127.36218 240,0"
         style="fill:none;stroke:#000000;stroke-width:1px;stroke-linecap:butt;stroke-linejoin:miter;stroke-opacity:1" />
      <path
         inkscape:connector-curvature="0"
         id="path2999"
         d="m 155,122.36218 0,10"
         style="fill:none;stroke:#000000;stroke-width:1px;stroke-linecap:butt;stroke-linejoin:miter;stroke-opacity:1" />
      <path
         style="fill:none;stroke:#000000;stroke-width:1px;stroke-linecap:butt;stroke-linejoin:miter;stroke-opacity:1"
         d="m 395,122.36218 0,10"
         id="path3001"
         inkscape:connector-curvature="0" />
      <g
         id="g3275"
         inkscape:label="ink_ext_XXXXXX"
         transform="matrix(2.1419034,0,0,-2.1419034,129.06684,133.00475)">
        <g
           id="g3277"
           transform="scale(0.1,0.1)">
          <path
             inkscape:connector-curvature="0"
             d="m 67.25,19.0898 -2.4805,0 c -0.5,-2.5781 -0.8906,-4.871 -1.7812,-7.25 -0.5,-1.5898 -0.7969,-2.39058 -6.5586,-2.39058 l -7.9492,0 c 1.3007,5.56248 4.3789,10.33198 8.8398,16.89058 4.668,7.0508 8.75,13.9102 8.75,21.75 0,13.8086 -13.4101,24.9414 -30.1992,24.9414 -17.082,0 -30.30079,-11.332 -30.30079,-24.9414 0,-7.8398 4.07813,-14.6992 8.73049,-21.75 4.3789,-6.5586 7.5586,-11.3281 8.8398,-16.89058 l -7.9414,0 c -5.76951,0 -6.05858,0.80078 -6.55858,2.28128 -0.80078,2.3007 -1.30078,4.8789 -1.78124,7.3593 l -2.48047,0 L 7.66016,3 23.5508,3 c 2.1875,0 2.4804,0 2.4804,2.08984 0,6.94926 -3.082,15.69136 -5.371,22.05076 -2.0821,5.7696 -4.8594,13.6094 -4.8594,21.0586 0,15.8906 10.918,22.6406 19.9687,22.6406 9.5313,0 20.0586,-7.1601 20.0586,-22.6406 0,-7.4492 -2.6875,-15 -5.5586,-23.1601 C 48.7891,20.8711 45.6016,11.9297 45.6016,5.08984 45.6016,3 45.8984,3 48.1797,3 l 15.8008,0 3.2812,16.0898"
             style="fill:#000000;fill-opacity:1;fill-rule:nonzero;stroke:none"
             id="path3279" />
        </g>
      </g>
    </g>
    <g
       id="g4273"
       transform="translate(-70,-78.60782)">
      <g
         transform="translate(-291,9.0000026)"
         id="g3163">
        <path
           style="fill:none;stroke:#000000;stroke-width:1px;stroke-linecap:round;stroke-linejoin:miter;stroke-opacity:1"
           d="m 446,233.36218 240,0"
           id="path3067"
           inkscape:connector-curvature="0" />
        <path
           inkscape:connector-curvature="0"
           id="path3069"
           d="m 446,473.36218 0,-240"
           style="fill:none;stroke:#000000;stroke-width:1px;stroke-linecap:round;stroke-linejoin:miter;stroke-opacity:1" />
        <path
           style="fill:none;stroke:#000000;stroke-width:1px;stroke-linecap:round;stroke-linejoin:miter;stroke-opacity:1"
           d="m 686,473.36218 0,-240"
           id="path3071"
           inkscape:connector-curvature="0" />
        <path
           inkscape:connector-curvature="0"
           id="path3073"
           d="m 446,473.36218 240,0"
           style="fill:none;stroke:#000000;stroke-width:1px;stroke-linecap:round;stroke-linejoin:miter;stroke-opacity:1" />
      </g>
      <g
         transform="matrix(2.1419034,0,0,-2.1419034,128.61562,252.68599)"
         inkscape:label="ink_ext_XXXXXX"
         id="g4091">
        <g
           transform="scale(0.1,0.1)"
           id="g4093">
          <path
             id="path4095"
             style="fill:#000000;fill-opacity:1;fill-rule:nonzero;stroke:none"
             d="m 67.25,19.0898 -2.4805,0 c -0.5,-2.5781 -0.8906,-4.871 -1.7812,-7.25 -0.5,-1.5898 -0.7969,-2.39058 -6.5586,-2.39058 l -7.9492,0 c 1.3007,5.56248 4.3789,10.33198 8.8398,16.89058 4.668,7.0508 8.75,13.9102 8.75,21.75 0,13.8086 -13.4101,24.9414 -30.1992,24.9414 -17.082,0 -30.30079,-11.332 -30.30079,-24.9414 0,-7.8398 4.07813,-14.6992 8.73049,-21.75 4.3789,-6.5586 7.5586,-11.3281 8.8398,-16.89058 l -7.9414,0 c -5.76951,0 -6.05858,0.80078 -6.55858,2.28128 -0.80078,2.3007 -1.30078,4.8789 -1.78124,7.3593 l -2.48047,0 L 7.66016,3 23.5508,3 c 2.1875,0 2.4804,0 2.4804,2.08984 0,6.94926 -3.082,15.69136 -5.371,22.05076 -2.0821,5.7696 -4.8594,13.6094 -4.8594,21.0586 0,15.8906 10.918,22.6406 19.9687,22.6406 9.5313,0 20.0586,-7.1601 20.0586,-22.6406 0,-7.4492 -2.6875,-15 -5.5586,-23.1601 C 48.7891,20.8711 45.6016,11.9297 45.6016,5.08984 45.6016,3 45.8984,3 48.1797,3 l 15.8008,0 3.2812,16.0898"
             inkscape:connector-curvature="0" />
        </g>
      </g>
    </g>
    <g
       id="g4180"
       transform="translate(69.911612,-64.999997)">
      <g
         transform="translate(58,-9)"
         id="g3169">
        <path
           inkscape:connector-curvature="0"
           id="path3787"
           d="m 295,184.36218 240,0"
           style="fill:none;stroke:#000000;stroke-width:1px;stroke-linecap:butt;stroke-linejoin:miter;stroke-opacity:1" />
        <path
           inkscape:connector-curvature="0"
           id="path3789"
           d="m 295,179.36218 0,10"
           style="fill:none;stroke:#000000;stroke-width:1px;stroke-linecap:butt;stroke-linejoin:miter;stroke-opacity:1" />
        <path
           style="fill:none;stroke:#000000;stroke-width:1px;stroke-linecap:butt;stroke-linejoin:miter;stroke-opacity:1"
           d="m 535,179.36218 0,10"
           id="path3791"
           inkscape:connector-curvature="0" />
        <rect
           y="181.36218"
           x="292"
           height="6"
           width="6"
           id="rect3793"
           style="opacity:0.5;fill:#ff0000;fill-opacity:1;stroke:#ff0000;stroke-width:2.5;stroke-linecap:round;stroke-linejoin:round;stroke-miterlimit:4;stroke-opacity:1;stroke-dasharray:none;stroke-dashoffset:0" />
        <rect
           style="opacity:0.5;fill:#ff0000;fill-opacity:1;stroke:#ff0000;stroke-width:2.5;stroke-linecap:round;stroke-linejoin:round;stroke-miterlimit:4;stroke-opacity:1;stroke-dasharray:none;stroke-dashoffset:0"
           id="rect3795"
           width="6"
           height="6"
           x="342"
           y="181.36218" />
        <rect
           y="181.36218"
           x="487"
           height="6"
           width="6"
           id="rect3797"
           style="opacity:0.5;fill:#ff0000;fill-opacity:1;stroke:#ff0000;stroke-width:2.5;stroke-linecap:round;stroke-linejoin:round;stroke-miterlimit:4;stroke-opacity:1;stroke-dasharray:none;stroke-dashoffset:0" />
        <rect
           style="opacity:0.5;fill:#ff0000;fill-opacity:1;stroke:#ff0000;stroke-width:2.5;stroke-linecap:round;stroke-linejoin:round;stroke-miterlimit:4;stroke-opacity:1;stroke-dasharray:none;stroke-dashoffset:0"
           id="rect3799"
           width="6"
           height="6"
           x="430"
           y="181.36218" />
        <rect
           style="opacity:0.5;fill:#ff0000;fill-opacity:1;stroke:#ff0000;stroke-width:2.5;stroke-linecap:round;stroke-linejoin:round;stroke-miterlimit:4;stroke-opacity:1;stroke-dasharray:none;stroke-dashoffset:0"
           id="rect3801"
           width="6"
           height="6"
           x="384"
           y="181.36218" />
        <rect
           y="181.36218"
           x="532"
           height="6"
           width="6"
           id="rect3803"
           style="opacity:0.5;fill:#ff0000;fill-opacity:1;stroke:#ff0000;stroke-width:2.5;stroke-linecap:round;stroke-linejoin:round;stroke-miterlimit:4;stroke-opacity:1;stroke-dasharray:none;stroke-dashoffset:0" />
        <rect
           style="opacity:0.5;fill:#ff0000;fill-opacity:1;stroke:#ff0000;stroke-width:2.5;stroke-linecap:round;stroke-linejoin:round;stroke-miterlimit:4;stroke-opacity:1;stroke-dasharray:none;stroke-dashoffset:0"
           id="rect3805"
           width="6"
           height="6"
           x="470"
           y="181.36218" />
        <path
           style="fill:none;stroke:#0000ff;stroke-width:2;stroke-linecap:butt;stroke-linejoin:miter;stroke-opacity:1;opacity:0.50000000000000000;stroke-miterlimit:4;stroke-dasharray:none"
           d="m 295,184.36218 240,0"
           id="path4295"
           inkscape:connector-curvature="0" />
      </g>
      <g
         id="g3311"
         inkscape:label="ink_ext_XXXXXX"
         transform="matrix(1.6901515,0,0,-1.6901515,458.4269,173.78476)">
        <g
           id="g3313"
           transform="scale(0.1,0.1)">
          <path
             inkscape:connector-curvature="0"
             d="m 69.0898,59.9492 c 0,4.4727 -1.7812,6.9492 -3.9687,6.9492 -2.582,0 -5.2695,-2.3867 -5.2695,-4.6679 0,-0.9805 0.5,-2.0821 1.4765,-2.9688 1.7031,-1.5 3.4805,-4.1914 3.4805,-8.3633 0,-3.9687 -1.8867,-9.6172 -4.9688,-14.1992 -2.9804,-4.2695 -6.6601,-7.6406 -11.3281,-7.6406 -5.6601,0 -8.7305,3.582 -9.6211,8.9414 1.0899,2.5781 3.3789,8.9414 3.3789,11.7188 0,1.1914 -0.5,2.1914 -1.8007,2.1914 -0.7969,0 -1.8672,-0.1993 -2.668,-1.6914 C 36.7109,48.2383 35.5,41.7812 35.5,38.1992 32.2305,33.5312 28.25,29.0586 22,29.0586 c -6.5586,0 -8.6406,5.8633 -8.6406,11.4219 0,12.4179 10.1289,22.8398 10.1289,24.1406 0,1.0898 -0.7969,1.8906 -1.8867,1.8906 -1.2813,0 -1.9805,-1.3008 -2.5821,-2.1914 -5.0586,-7.3594 -8.8398,-19.1719 -8.8398,-28.2187 0,-6.8399 2.3008,-14.2032 10.4414,-14.2032 7.0508,0 11.7187,4.9727 15.3008,10.4414 0.8867,-5.7695 4.7695,-10.4414 10.9179,-10.4414 7.75,0 12.5196,6.0625 16.0899,13.5235 2.3906,4.8593 6.1601,18.3789 6.1601,24.5273"
             style="fill:#000000;fill-opacity:1;fill-rule:nonzero;stroke:none"
             id="path3315" />
          <path
             inkscape:connector-curvature="0"
             d="m 93.7812,51.9414 c 0,1.1289 -0.8398,2.668 -2.8124,2.668 -1.9102,0 -3.9376,-1.8282 -3.9376,-3.8594 0,-1.1992 0.9102,-2.6719 2.8086,-2.6719 2.0313,0 3.9414,1.9727 3.9414,3.8633 z M 79.4414,16.2188 c -0.2812,-0.9102 -0.6406,-1.75 -0.6406,-2.9493 0,-3.30075 2.8086,-5.96872 6.6875,-5.96872 7.0312,0 10.1328,9.69922 10.1328,10.75002 0,0.918 -0.9219,0.918 -1.1211,0.918 -0.9805,0 -1.0586,-0.418 -1.3398,-1.1993 -1.6094,-5.6211 -4.6993,-8.49997 -7.4493,-8.49997 -1.4101,0 -1.75,0.91017 -1.75,2.44927 0,1.6328 0.4805,2.9531 1.1289,4.5 0.6993,1.9101 1.4688,3.8007 2.25,5.6328 0.629,1.6875 3.1602,8.0898 3.4414,8.9375 0.2188,0.6992 0.418,1.5507 0.418,2.25 0,3.3007 -2.8086,5.9726 -6.668,5.9726 -6.9726,0 -10.2031,-9.5625 -10.2031,-10.75 0,-0.9219 0.9805,-0.9219 1.2031,-0.9219 0.9805,0 1.0469,0.3594 1.2696,1.129 1.8281,6.0507 4.918,8.582 7.5195,8.582 1.1289,0 1.7695,-0.5625 1.7695,-2.4492 0,-1.6211 -0.4179,-2.6719 -2.1914,-7.0313 l -4.4179,-11.332"
             style="fill:#000000;fill-opacity:1;fill-rule:nonzero;stroke:none"
             id="path3317" />
        </g>
      </g>
      <g
         id="g4126"
         inkscape:label="ink_ext_XXXXXX"
         transform="matrix(1.491049,0,0,-1.491049,292.77297,178.19247)">
        <g
           id="g4128"
           transform="scale(0.1,0.1)">
          <path
             inkscape:connector-curvature="0"
             d="m 15.9219,37.1719 0,-26.6211 c 0,-4.47268 -1.0938,-4.47268 -7.75002,-4.47268 L 8.17188,3 c 3.47652,0.08984 8.54692,0.30078 11.22652,0.30078 2.5821,0 7.75,-0.19922 11.1328,-0.30078 l 0,3.07812 c -6.6601,0 -7.75,0 -7.75,4.47268 l 0,18.2773 c 0,10.3321 7.0469,15.8907 13.4102,15.8907 6.2695,0 7.3594,-5.3594 7.3594,-11.0274 l 0,-23.1406 c 0,-4.47268 -1.0899,-4.47268 -7.75,-4.47268 L 35.8008,3 c 3.4687,0.08984 8.5508,0.30078 11.2187,0.30078 2.5899,0 7.75,-0.19922 11.1289,-0.30078 l 0,3.07812 c -6.6601,0 -7.75,0 -7.75,4.47268 l 0,18.2773 c 0,10.3321 7.0625,15.8907 13.4219,15.8907 6.25,0 7.3399,-5.3594 7.3399,-11.0274 l 0,-23.1406 c 0,-4.47268 -1.0899,-4.47268 -7.75,-4.47268 L 63.4102,3 c 3.4804,0.08984 8.5507,0.30078 11.2304,0.30078 2.5782,0 7.75,-0.19922 11.1289,-0.30078 l 0,3.07812 c -5.1679,0 -7.6601,0 -7.75,2.98047 l 0,18.97261 c 0,8.5469 0,11.629 -3.0781,15.1993 -1.3906,1.6914 -4.6719,3.6679 -10.4414,3.6679 -8.3398,0 -12.7188,-5.9492 -14.4102,-9.7265 -1.3906,8.6367 -8.7304,9.7265 -13.1992,9.7265 -7.25,0 -11.9218,-4.2695 -14.6992,-10.4179 l 0,10.4179 -14.01952,-1.0898 0,-3.0781 c 6.94922,0 7.75002,-0.6914 7.75002,-5.5586"
             style="fill:#000000;fill-opacity:1;fill-rule:nonzero;stroke:none"
             id="path4130" />
          <path
             inkscape:connector-curvature="0"
             d="m 99.1289,28.0312 c 0.5899,14.7969 8.9411,17.2774 12.3121,17.2774 10.231,0 11.231,-13.4102 11.231,-17.2774 l -23.5509,0 0.0078,0 z m -0.0977,-2.082 27.6988,0 c 2.192,0 2.481,0 2.481,2.082 0,9.8399 -5.359,19.4688 -17.781,19.4688 -11.5198,0 -20.6605,-10.2305 -20.6605,-22.6406 0,-13.3086 10.4415,-22.94924 21.8595,-22.94924 12.109,0 16.582,11.03124 16.582,12.91794 0,0.9805 -0.781,1.1914 -1.281,1.1914 -0.891,0 -1.09,-0.5898 -1.301,-1.3906 C 123.16,4.39844 114.211,4.39844 113.219,4.39844 c -4.969,0 -8.938,2.98047 -11.231,6.66016 -2.9685,4.7695 -2.9685,11.332 -2.9685,14.9102"
             style="fill:#000000;fill-opacity:1;fill-rule:nonzero;stroke:none"
             id="path4132" />
          <path
             inkscape:connector-curvature="0"
             d="m 152.66,22.2695 c 2.192,-0.3906 10.34,-1.9804 10.34,-9.1406 0,-5.05859 -3.48,-9.02734 -11.23,-9.02734 -8.34,0 -11.918,5.66016 -13.809,14.10934 -0.301,1.2774 -0.391,1.6875 -1.391,1.6875 -1.281,0 -1.281,-0.6992 -1.281,-2.4765 l 0,-13.11331 c 0,-1.6875 0,-2.38671 1.09,-2.38671 0.5,0 0.59,0.08984 2.48,1.97656 0.192,0.20312 0.192,0.41015 1.981,2.28125 4.379,-4.16797 8.84,-4.26953 10.922,-4.26953 11.418,0 16,6.66015 16,13.80864 0,5.2695 -2.981,8.2304 -4.172,9.4414 -3.281,3.1679 -7.16,3.9687 -11.328,4.7695 -5.563,1.0898 -12.223,2.3789 -12.223,8.1406 0,3.4805 2.582,7.5508 11.133,7.5508 10.918,0 11.418,-8.9414 11.629,-12.0195 0.09,-0.8907 0.98,-0.8907 1.187,-0.8907 1.301,0 1.301,0.5 1.301,2.3789 l 0,10.0508 c 0,1.6875 0,2.3789 -1.09,2.3789 -0.5,0 -0.699,0 -1.98,-1.1914 -0.297,-0.4062 -1.297,-1.2969 -1.688,-1.5898 -3.781,2.7812 -7.859,2.7812 -9.34,2.7812 -12.121,0 -15.89,-6.6601 -15.89,-12.2187 0,-3.4727 1.59,-6.25 4.269,-8.4414 3.192,-2.5782 5.969,-3.1875 13.11,-4.5782"
             style="fill:#000000;fill-opacity:1;fill-rule:nonzero;stroke:none"
             id="path4134" />
          <path
             inkscape:connector-curvature="0"
             d="m 181.922,10.5508 c 0,-4.47268 -1.094,-4.47268 -7.75,-4.47268 L 174.172,3 c 3.476,0.08984 8.547,0.30078 11.226,0.30078 2.582,0 7.75,-0.19922 11.133,-0.30078 l 0,3.07812 c -6.66,0 -7.75,0 -7.75,4.47268 l 0,18.2773 c 0,10.3321 7.047,15.8907 13.41,15.8907 6.27,0 7.36,-5.3594 7.36,-11.0274 l 0,-23.1406 c 0,-4.47268 -1.09,-4.47268 -7.75,-4.47268 L 201.801,3 c 3.469,0.08984 8.551,0.30078 11.219,0.30078 2.589,0 7.75,-0.19922 11.128,-0.30078 l 0,3.07812 c -5.16,0 -7.636,0 -7.75,2.98047 l 0,18.97261 c 0,8.5469 0,11.629 -3.078,15.1993 -1.39,1.6914 -4.66,3.6679 -10.422,3.6679 -8.339,0 -12.718,-5.9492 -14.41,-9.7265 l 0,34.7695 -14.308,-1.0898 0,-3.0821 c 6.949,0 7.75,-0.6914 7.75,-5.5586 l 0,-51.6601"
             style="fill:#000000;fill-opacity:1;fill-rule:nonzero;stroke:none"
             id="path4136" />
          <path
             inkscape:connector-curvature="0"
             d="m 279.078,40.5508 c 0,2.8906 -2.387,5.2695 -5.269,5.2695 -2.887,0 -5.27,-2.3711 -5.27,-5.2695 0,-2.8711 2.383,-5.2696 5.27,-5.2696 2.882,0 5.269,2.3907 5.269,5.2696 z m 0,-32.28127 c 0,2.87887 -2.387,5.26957 -5.269,5.26957 -2.887,0 -5.27,-2.3907 -5.27,-5.26957 0,-2.87109 2.383,-5.26953 5.27,-5.26953 2.882,0 5.269,2.39062 5.269,5.26953"
             style="fill:#000000;fill-opacity:1;fill-rule:nonzero;stroke:none"
             id="path4138" />
        </g>
      </g>
    </g>
    <g
       id="g4204"
       transform="translate(69.461443,-361.73117)">
      <g
         transform="translate(-70,-100)"
         id="g3181">
        <rect
           y="807.42029"
           x="455.09875"
           height="6"
           width="6"
           id="rect3779"
           style="opacity:0.5;fill:#ff0000;fill-opacity:1;stroke:#ff0000;stroke-width:2.5;stroke-linecap:round;stroke-linejoin:round;stroke-miterlimit:4;stroke-opacity:1;stroke-dasharray:none;stroke-dashoffset:0" />
        <rect
           style="opacity:0.5;fill:#ff0000;fill-opacity:1;stroke:#ff0000;stroke-width:2.5;stroke-linecap:round;stroke-linejoin:round;stroke-miterlimit:4;stroke-opacity:1;stroke-dasharray:none;stroke-dashoffset:0"
           id="rect3005"
           width="6"
           height="6"
           x="420"
           y="622.36218" />
        <rect
           y="817.47839"
           x="505.01764"
           height="6"
           width="6"
           id="rect3775"
           style="opacity:0.5;fill:#ff0000;fill-opacity:1;stroke:#ff0000;stroke-width:2.5;stroke-linecap:round;stroke-linejoin:round;stroke-miterlimit:4;stroke-opacity:1;stroke-dasharray:none;stroke-dashoffset:0" />
        <rect
           style="opacity:0.5;fill:#ff0000;fill-opacity:1;stroke:#ff0000;stroke-width:2.5;stroke-linecap:round;stroke-linejoin:round;stroke-miterlimit:4;stroke-opacity:1;stroke-dasharray:none;stroke-dashoffset:0"
           id="rect3777"
           width="6"
           height="6"
           x="604.82568"
           y="747.32141" />
        <rect
           y="787.47839"
           x="559.98267"
           height="6"
           width="6"
           id="rect3781"
           style="opacity:0.5;fill:#ff0000;fill-opacity:1;stroke:#ff0000;stroke-width:2.5;stroke-linecap:round;stroke-linejoin:round;stroke-miterlimit:4;stroke-opacity:1;stroke-dasharray:none;stroke-dashoffset:0" />
        <rect
           style="opacity:0.5;fill:#ff0000;fill-opacity:1;stroke:#ff0000;stroke-width:2.5;stroke-linecap:round;stroke-linejoin:round;stroke-miterlimit:4;stroke-opacity:1;stroke-dasharray:none;stroke-dashoffset:0"
           id="rect3783"
           width="6"
           height="6"
           x="605.13965"
           y="812.16443" />
        <rect
           y="622.36218"
           x="660"
           height="6"
           width="6"
           id="rect3785"
           style="opacity:0.5;fill:#ff0000;fill-opacity:1;stroke:#ff0000;stroke-width:2.5;stroke-linecap:round;stroke-linejoin:round;stroke-miterlimit:4;stroke-opacity:1;stroke-dasharray:none;stroke-dashoffset:0" />
        <path
           inkscape:connector-curvature="0"
           id="path3826"
           d="m 423,625.36218 240,0"
           style="fill:none;stroke:#000000;stroke-width:1px;stroke-linecap:round;stroke-linejoin:miter;stroke-opacity:1" />
        <path
           style="fill:none;stroke:#000000;stroke-width:1px;stroke-linecap:round;stroke-linejoin:miter;stroke-opacity:1"
           d="m 423,865.36218 0,-240"
           id="path3830"
           inkscape:connector-curvature="0" />
        <path
           inkscape:connector-curvature="0"
           id="path3832"
           d="m 663,865.36218 0,-240"
           style="fill:none;stroke:#000000;stroke-width:1px;stroke-linecap:round;stroke-linejoin:miter;stroke-opacity:1" />
        <path
           style="fill:none;stroke:#000000;stroke-width:1px;stroke-linecap:round;stroke-linejoin:miter;stroke-opacity:1"
           d="m 423,865.36218 240,0"
           id="path3834"
           inkscape:connector-curvature="0" />
        <rect
           style="opacity:0.5;fill:#ff0000;fill-opacity:1;stroke:#ff0000;stroke-width:2.5;stroke-linecap:round;stroke-linejoin:round;stroke-miterlimit:4;stroke-opacity:1;stroke-dasharray:none;stroke-dashoffset:0"
           id="rect3836"
           width="6"
           height="6"
           x="-868.36218"
           y="-666"
           transform="matrix(0,-1,-1,0,0,0)" />
        <rect
           y="-617"
           x="-868.36218"
           height="6"
           width="6"
           id="rect3838"
           style="opacity:0.5;fill:#ff0000;fill-opacity:1;stroke:#ff0000;stroke-width:2.5;stroke-linecap:round;stroke-linejoin:round;stroke-miterlimit:4;stroke-opacity:1;stroke-dasharray:none;stroke-dashoffset:0"
           transform="matrix(0,-1,-1,0,0,0)" />
        <rect
           style="opacity:0.5;fill:#ff0000;fill-opacity:1;stroke:#ff0000;stroke-width:2.5;stroke-linecap:round;stroke-linejoin:round;stroke-miterlimit:4;stroke-opacity:1;stroke-dasharray:none;stroke-dashoffset:0"
           id="rect3840"
           width="6"
           height="6"
           x="-868.36218"
           y="-472"
           transform="matrix(0,-1,-1,0,0,0)" />
        <rect
           y="-529"
           x="-868.36218"
           height="6"
           width="6"
           id="rect3842"
           style="opacity:0.5;fill:#ff0000;fill-opacity:1;stroke:#ff0000;stroke-width:2.5;stroke-linecap:round;stroke-linejoin:round;stroke-miterlimit:4;stroke-opacity:1;stroke-dasharray:none;stroke-dashoffset:0"
           transform="matrix(0,-1,-1,0,0,0)" />
        <rect
           y="-575"
           x="-868.36218"
           height="6"
           width="6"
           id="rect3844"
           style="opacity:0.5;fill:#ff0000;fill-opacity:1;stroke:#ff0000;stroke-width:2.5;stroke-linecap:round;stroke-linejoin:round;stroke-miterlimit:4;stroke-opacity:1;stroke-dasharray:none;stroke-dashoffset:0"
           transform="matrix(0,-1,-1,0,0,0)" />
        <rect
           style="opacity:0.5;fill:#ff0000;fill-opacity:1;stroke:#ff0000;stroke-width:2.5;stroke-linecap:square;stroke-linejoin:round;stroke-miterlimit:4;stroke-opacity:1;stroke-dasharray:none;stroke-dashoffset:0"
           id="rect3846"
           width="6"
           height="6"
           x="-868.36218"
           y="-426"
           transform="matrix(0,-1,-1,0,0,0)" />
        <rect
           style="opacity:0.5;fill:#ff0000;fill-opacity:1;stroke:#ff0000;stroke-width:2.5;stroke-linecap:round;stroke-linejoin:round;stroke-miterlimit:4;stroke-opacity:1;stroke-dasharray:none;stroke-dashoffset:0"
           id="rect3089"
           width="6"
           height="6"
           x="455"
           y="737.36218" />
        <rect
           y="667.36218"
           x="550"
           height="6"
           width="6"
           id="rect3091"
           style="opacity:0.5;fill:#ff0000;fill-opacity:1;stroke:#ff0000;stroke-width:2.5;stroke-linecap:round;stroke-linejoin:round;stroke-miterlimit:4;stroke-opacity:1;stroke-dasharray:none;stroke-dashoffset:0" />
        <rect
           style="opacity:0.5;fill:#ff0000;fill-opacity:1;stroke:#ff0000;stroke-width:2.5;stroke-linecap:round;stroke-linejoin:round;stroke-miterlimit:4;stroke-opacity:1;stroke-dasharray:none;stroke-dashoffset:0"
           id="rect3093"
           width="6"
           height="6"
           x="505.04059"
           y="707.5365" />
        <rect
           y="732.22253"
           x="545.01733"
           height="6"
           width="6"
           id="rect3095"
           style="opacity:0.5;fill:#ff0000;fill-opacity:1;stroke:#ff0000;stroke-width:2.5;stroke-linecap:round;stroke-linejoin:round;stroke-miterlimit:4;stroke-opacity:1;stroke-dasharray:none;stroke-dashoffset:0" />
        <rect
           style="opacity:0.5;fill:#ff0000;fill-opacity:1;stroke:#ff0000;stroke-width:2.5;stroke-linecap:round;stroke-linejoin:round;stroke-miterlimit:4;stroke-opacity:1;stroke-dasharray:none;stroke-dashoffset:0"
           id="rect3097"
           width="6"
           height="6"
           x="470"
           y="657.36218" />
        <rect
           y="677.36218"
           x="615"
           height="6"
           width="6"
           id="rect3099"
           style="opacity:0.5;fill:#ff0000;fill-opacity:1;stroke:#ff0000;stroke-width:2.5;stroke-linecap:round;stroke-linejoin:round;stroke-miterlimit:4;stroke-opacity:1;stroke-dasharray:none;stroke-dashoffset:0" />
        <path
           style="opacity:0.5;fill:none;stroke:#0000ff;stroke-width:2;stroke-linecap:butt;stroke-linejoin:round;stroke-miterlimit:4;stroke-opacity:1;stroke-dasharray:none"
           d="m 423,865.36218 35,-55 10,55"
           id="path3101"
           inkscape:connector-curvature="0" />
        <path
           style="opacity:0.5;fill:none;stroke:#0000ff;stroke-width:2;stroke-linecap:butt;stroke-linejoin:round;stroke-miterlimit:4;stroke-opacity:1;stroke-dasharray:none"
           d="m 458,810.36218 0,-70 50,80 z"
           id="path3103"
           inkscape:connector-curvature="0" />
        <path
           style="opacity:0.5;fill:none;stroke:#0000ff;stroke-width:2;stroke-linecap:butt;stroke-linejoin:round;stroke-miterlimit:4;stroke-opacity:1;stroke-dasharray:none"
           d="m 508,820.36218 40,-85 -90,5 50,-30 40,25 60,15 -45,40 -15,-55 5,-65 65,10 -70,55"
           id="path3105"
           inkscape:connector-curvature="0" />
        <path
           style="opacity:0.5;fill:none;stroke:#0000ff;stroke-width:2;stroke-linecap:butt;stroke-linejoin:round;stroke-miterlimit:4;stroke-opacity:1;stroke-dasharray:none"
           d="m 618,680.36218 -10,70 0,65 -45,-25 -55,30 -40,45"
           id="path3107"
           inkscape:connector-curvature="0" />
        <path
           style="opacity:0.5;fill:none;stroke:#0000ff;stroke-width:2;stroke-linecap:butt;stroke-linejoin:round;stroke-miterlimit:4;stroke-opacity:1;stroke-dasharray:none"
           d="m 508,820.36218 20,45 35,-75 10,75 35,-50 5,50"
           id="path3109"
           inkscape:connector-curvature="0" />
        <path
           style="opacity:0.5;fill:none;stroke:#0000ff;stroke-width:2;stroke-linecap:butt;stroke-linejoin:round;stroke-miterlimit:4;stroke-opacity:1;stroke-dasharray:none"
           d="m 663,865.36218 -55,-50"
           id="path3111"
           inkscape:connector-curvature="0" />
        <rect
           y="772.36218"
           x="660"
           height="6"
           width="6"
           id="rect3113"
           style="opacity:0.5;fill:#ff0000;fill-opacity:1;stroke:#ff0000;stroke-width:2.5;stroke-linecap:round;stroke-linejoin:round;stroke-miterlimit:4;stroke-opacity:1;stroke-dasharray:none;stroke-dashoffset:0" />
        <rect
           style="opacity:0.5;fill:#ff0000;fill-opacity:1;stroke:#ff0000;stroke-width:2.5;stroke-linecap:round;stroke-linejoin:round;stroke-miterlimit:4;stroke-opacity:1;stroke-dasharray:none;stroke-dashoffset:0"
           id="rect3115"
           width="6"
           height="6"
           x="660"
           y="722.36218" />
        <rect
           y="682.36218"
           x="660"
           height="6"
           width="6"
           id="rect3117"
           style="opacity:0.5;fill:#ff0000;fill-opacity:1;stroke:#ff0000;stroke-width:2.5;stroke-linecap:round;stroke-linejoin:round;stroke-miterlimit:4;stroke-opacity:1;stroke-dasharray:none;stroke-dashoffset:0" />
        <rect
           y="657.36218"
           x="510"
           height="6"
           width="6"
           id="rect3121"
           style="opacity:0.5;fill:#ff0000;fill-opacity:1;stroke:#ff0000;stroke-width:2.5;stroke-linecap:round;stroke-linejoin:round;stroke-miterlimit:4;stroke-opacity:1;stroke-dasharray:none;stroke-dashoffset:0" />
        <rect
           style="opacity:0.5;fill:#ff0000;fill-opacity:1;stroke:#ff0000;stroke-width:2.5;stroke-linecap:round;stroke-linejoin:round;stroke-miterlimit:4;stroke-opacity:1;stroke-dasharray:none;stroke-dashoffset:0"
           id="rect3123"
           width="6"
           height="6"
           x="535"
           y="622.36218" />
        <rect
           y="777.36218"
           x="630"
           height="6"
           width="6"
           id="rect3125"
           style="opacity:0.5;fill:#ff0000;fill-opacity:1;stroke:#ff0000;stroke-width:2.5;stroke-linecap:round;stroke-linejoin:round;stroke-miterlimit:4;stroke-opacity:1;stroke-dasharray:none;stroke-dashoffset:0" />
        <rect
           style="opacity:0.5;fill:#ff0000;fill-opacity:1;stroke:#ff0000;stroke-width:2.5;stroke-linecap:round;stroke-linejoin:round;stroke-miterlimit:4;stroke-opacity:1;stroke-dasharray:none;stroke-dashoffset:0"
           id="rect3127"
           width="6"
           height="6"
           x="600"
           y="622.36218" />
        <rect
           style="opacity:0.5;fill:#ff0000;fill-opacity:1;stroke:#ff0000;stroke-width:2.5;stroke-linecap:round;stroke-linejoin:round;stroke-miterlimit:4;stroke-opacity:1;stroke-dasharray:none;stroke-dashoffset:0"
           id="rect3131"
           width="6"
           height="6"
           x="485"
           y="622.36218" />
        <rect
           y="731.36218"
           x="420"
           height="6"
           width="6"
           id="rect3133"
           style="opacity:0.5;fill:#ff0000;fill-opacity:1;stroke:#ff0000;stroke-width:2.5;stroke-linecap:round;stroke-linejoin:round;stroke-miterlimit:4;stroke-opacity:1;stroke-dasharray:none;stroke-dashoffset:0" />
        <rect
           style="opacity:0.5;fill:#ff0000;fill-opacity:1;stroke:#ff0000;stroke-width:2.5;stroke-linecap:round;stroke-linejoin:round;stroke-miterlimit:4;stroke-opacity:1;stroke-dasharray:none;stroke-dashoffset:0"
           id="rect3135"
           width="6"
           height="6"
           x="420"
           y="797.36218" />
        <rect
           y="692.36218"
           x="420"
           height="6"
           width="6"
           id="rect3137"
           style="opacity:0.5;fill:#ff0000;fill-opacity:1;stroke:#ff0000;stroke-width:2.5;stroke-linecap:round;stroke-linejoin:round;stroke-miterlimit:4;stroke-opacity:1;stroke-dasharray:none;stroke-dashoffset:0" />
        <rect
           style="opacity:0.5;fill:#ff0000;fill-opacity:1;stroke:#ff0000;stroke-width:2.5;stroke-linecap:round;stroke-linejoin:round;stroke-miterlimit:4;stroke-opacity:1;stroke-dasharray:none;stroke-dashoffset:0"
           id="rect3139"
           width="6"
           height="6"
           x="420"
           y="659.36218" />
        <path
           style="opacity:0.5;fill:none;stroke:#0000ff;stroke-width:2;stroke-linecap:butt;stroke-linejoin:round;stroke-miterlimit:4;stroke-opacity:1;stroke-dasharray:none"
           d="m 458,810.36218 -35,-10 35,-60 -35,-5"
           id="path3141"
           inkscape:connector-curvature="0" />
        <path
           style="opacity:0.5;fill:none;stroke:#0000ff;stroke-width:2;stroke-linecap:butt;stroke-linejoin:round;stroke-miterlimit:4;stroke-opacity:1;stroke-dasharray:none"
           d="m 423,695.36218 35,45"
           id="path3143"
           inkscape:connector-curvature="0" />
        <path
           style="opacity:0.5;fill:none;stroke:#0000ff;stroke-width:2;stroke-linecap:butt;stroke-linejoin:round;stroke-miterlimit:4;stroke-opacity:1;stroke-dasharray:none"
           d="m 508,710.36218 -85,-15"
           id="path3145"
           inkscape:connector-curvature="0" />
        <path
           style="opacity:0.5;fill:none;stroke:#0000ff;stroke-width:2;stroke-linecap:butt;stroke-linejoin:round;stroke-miterlimit:4;stroke-opacity:1;stroke-dasharray:none"
           d="m 423,625.36218 50,35 -50,0"
           id="path3147"
           inkscape:connector-curvature="0" />
        <path
           style="opacity:0.5;fill:none;stroke:#0000ff;stroke-width:2;stroke-linecap:butt;stroke-linejoin:round;stroke-miterlimit:4;stroke-opacity:1;stroke-dasharray:none"
           d="m 423,695.36218 50,-35 35,50 5,-50 -40,0"
           id="path3149"
           inkscape:connector-curvature="0" />
        <path
           style="opacity:0.5;fill:none;stroke:#0000ff;stroke-width:2;stroke-linecap:butt;stroke-linejoin:round;stroke-miterlimit:4;stroke-opacity:1;stroke-dasharray:none"
           d="m 513,660.36218 25,-35 15,45 50,-45 15,55 45,-55"
           id="path3153"
           inkscape:connector-curvature="0" />
        <path
           style="opacity:0.5;fill:none;stroke:#0000ff;stroke-width:2;stroke-linecap:butt;stroke-linejoin:round;stroke-miterlimit:4;stroke-opacity:1;stroke-dasharray:none"
           d="m 663,685.36218 -45,-5 45,45 -55,25 25,30 30,-55"
           id="path3155"
           inkscape:connector-curvature="0" />
        <path
           style="opacity:0.5;fill:none;stroke:#0000ff;stroke-width:2;stroke-linecap:butt;stroke-linejoin:round;stroke-miterlimit:4;stroke-opacity:1;stroke-dasharray:none"
           d="m 663,775.36218 -30,5 -25,35"
           id="path3157"
           inkscape:connector-curvature="0" />
        <path
           style="opacity:0.5;fill:none;stroke:#0000ff;stroke-width:2;stroke-linecap:butt;stroke-linejoin:round;stroke-miterlimit:4;stroke-opacity:1;stroke-dasharray:none"
           d="m 633,780.36218 30,85"
           id="path3159"
           inkscape:connector-curvature="0" />
        <path
           style="opacity:0.5;fill:none;stroke:#0000ff;stroke-width:2;stroke-linecap:butt;stroke-linejoin:round;stroke-miterlimit:4;stroke-opacity:1;stroke-dasharray:none"
           d="m 473,660.36218 15,-35 25,35 40,10 -45,40"
           id="path3161"
           inkscape:connector-curvature="0" />
        <path
           style="opacity:0.5;fill:none;stroke:#0000ff;stroke-width:2;stroke-linecap:round;stroke-linejoin:miter;stroke-miterlimit:4;stroke-opacity:1;stroke-dasharray:none"
           d="m 423,625.36218 240,0"
           id="path4287"
           inkscape:connector-curvature="0" />
        <path
           inkscape:connector-curvature="0"
           id="path4289"
           d="m 423,865.36218 0,-240"
           style="opacity:0.5;fill:none;stroke:#0000ff;stroke-width:2;stroke-linecap:round;stroke-linejoin:miter;stroke-miterlimit:4;stroke-opacity:1;stroke-dasharray:none" />
        <path
           style="opacity:0.5;fill:none;stroke:#0000ff;stroke-width:2;stroke-linecap:round;stroke-linejoin:miter;stroke-miterlimit:4;stroke-opacity:1;stroke-dasharray:none"
           d="m 663,865.36218 0,-240"
           id="path4291"
           inkscape:connector-curvature="0" />
        <path
           inkscape:connector-curvature="0"
           id="path4293"
           d="m 423,865.36218 240,0"
           style="opacity:0.5;fill:none;stroke:#0000ff;stroke-width:2;stroke-linecap:round;stroke-linejoin:miter;stroke-miterlimit:4;stroke-opacity:1;stroke-dasharray:none" />
      </g>
      <g
         transform="matrix(1.491049,0,0,-1.491049,292.77297,532.53567)"
         inkscape:label="ink_ext_XXXXXX"
         id="g4147">
        <g
           transform="scale(0.1,0.1)"
           id="g4149">
          <path
             id="path4151"
             style="fill:#000000;fill-opacity:1;fill-rule:nonzero;stroke:none"
             d="m 15.9219,37.1719 0,-26.6211 c 0,-4.47268 -1.0938,-4.47268 -7.75002,-4.47268 L 8.17188,3 c 3.47652,0.08984 8.54692,0.30078 11.22652,0.30078 2.5821,0 7.75,-0.19922 11.1328,-0.30078 l 0,3.07812 c -6.6601,0 -7.75,0 -7.75,4.47268 l 0,18.2773 c 0,10.3321 7.0469,15.8907 13.4102,15.8907 6.2695,0 7.3594,-5.3594 7.3594,-11.0274 l 0,-23.1406 c 0,-4.47268 -1.0899,-4.47268 -7.75,-4.47268 L 35.8008,3 c 3.4687,0.08984 8.5508,0.30078 11.2187,0.30078 2.5899,0 7.75,-0.19922 11.1289,-0.30078 l 0,3.07812 c -6.6601,0 -7.75,0 -7.75,4.47268 l 0,18.2773 c 0,10.3321 7.0625,15.8907 13.4219,15.8907 6.25,0 7.3399,-5.3594 7.3399,-11.0274 l 0,-23.1406 c 0,-4.47268 -1.0899,-4.47268 -7.75,-4.47268 L 63.4102,3 c 3.4804,0.08984 8.5507,0.30078 11.2304,0.30078 2.5782,0 7.75,-0.19922 11.1289,-0.30078 l 0,3.07812 c -5.1679,0 -7.6601,0 -7.75,2.98047 l 0,18.97261 c 0,8.5469 0,11.629 -3.0781,15.1993 -1.3906,1.6914 -4.6719,3.6679 -10.4414,3.6679 -8.3398,0 -12.7188,-5.9492 -14.4102,-9.7265 -1.3906,8.6367 -8.7304,9.7265 -13.1992,9.7265 -7.25,0 -11.9218,-4.2695 -14.6992,-10.4179 l 0,10.4179 -14.01952,-1.0898 0,-3.0781 c 6.94922,0 7.75002,-0.6914 7.75002,-5.5586"
             inkscape:connector-curvature="0" />
          <path
             id="path4153"
             style="fill:#000000;fill-opacity:1;fill-rule:nonzero;stroke:none"
             d="m 99.1289,28.0312 c 0.5899,14.7969 8.9411,17.2774 12.3121,17.2774 10.231,0 11.231,-13.4102 11.231,-17.2774 l -23.5509,0 0.0078,0 z m -0.0977,-2.082 27.6988,0 c 2.192,0 2.481,0 2.481,2.082 0,9.8399 -5.359,19.4688 -17.781,19.4688 -11.5198,0 -20.6605,-10.2305 -20.6605,-22.6406 0,-13.3086 10.4415,-22.94924 21.8595,-22.94924 12.109,0 16.582,11.03124 16.582,12.91794 0,0.9805 -0.781,1.1914 -1.281,1.1914 -0.891,0 -1.09,-0.5898 -1.301,-1.3906 C 123.16,4.39844 114.211,4.39844 113.219,4.39844 c -4.969,0 -8.938,2.98047 -11.231,6.66016 -2.9685,4.7695 -2.9685,11.332 -2.9685,14.9102"
             inkscape:connector-curvature="0" />
          <path
             id="path4155"
             style="fill:#000000;fill-opacity:1;fill-rule:nonzero;stroke:none"
             d="m 152.66,22.2695 c 2.192,-0.3906 10.34,-1.9804 10.34,-9.1406 0,-5.05859 -3.48,-9.02734 -11.23,-9.02734 -8.34,0 -11.918,5.66016 -13.809,14.10934 -0.301,1.2774 -0.391,1.6875 -1.391,1.6875 -1.281,0 -1.281,-0.6992 -1.281,-2.4765 l 0,-13.11331 c 0,-1.6875 0,-2.38671 1.09,-2.38671 0.5,0 0.59,0.08984 2.48,1.97656 0.192,0.20312 0.192,0.41015 1.981,2.28125 4.379,-4.16797 8.84,-4.26953 10.922,-4.26953 11.418,0 16,6.66015 16,13.80864 0,5.2695 -2.981,8.2304 -4.172,9.4414 -3.281,3.1679 -7.16,3.9687 -11.328,4.7695 -5.563,1.0898 -12.223,2.3789 -12.223,8.1406 0,3.4805 2.582,7.5508 11.133,7.5508 10.918,0 11.418,-8.9414 11.629,-12.0195 0.09,-0.8907 0.98,-0.8907 1.187,-0.8907 1.301,0 1.301,0.5 1.301,2.3789 l 0,10.0508 c 0,1.6875 0,2.3789 -1.09,2.3789 -0.5,0 -0.699,0 -1.98,-1.1914 -0.297,-0.4062 -1.297,-1.2969 -1.688,-1.5898 -3.781,2.7812 -7.859,2.7812 -9.34,2.7812 -12.121,0 -15.89,-6.6601 -15.89,-12.2187 0,-3.4727 1.59,-6.25 4.269,-8.4414 3.192,-2.5782 5.969,-3.1875 13.11,-4.5782"
             inkscape:connector-curvature="0" />
          <path
             id="path4157"
             style="fill:#000000;fill-opacity:1;fill-rule:nonzero;stroke:none"
             d="m 181.922,10.5508 c 0,-4.47268 -1.094,-4.47268 -7.75,-4.47268 L 174.172,3 c 3.476,0.08984 8.547,0.30078 11.226,0.30078 2.582,0 7.75,-0.19922 11.133,-0.30078 l 0,3.07812 c -6.66,0 -7.75,0 -7.75,4.47268 l 0,18.2773 c 0,10.3321 7.047,15.8907 13.41,15.8907 6.27,0 7.36,-5.3594 7.36,-11.0274 l 0,-23.1406 c 0,-4.47268 -1.09,-4.47268 -7.75,-4.47268 L 201.801,3 c 3.469,0.08984 8.551,0.30078 11.219,0.30078 2.589,0 7.75,-0.19922 11.128,-0.30078 l 0,3.07812 c -5.16,0 -7.636,0 -7.75,2.98047 l 0,18.97261 c 0,8.5469 0,11.629 -3.078,15.1993 -1.39,1.6914 -4.66,3.6679 -10.422,3.6679 -8.339,0 -12.718,-5.9492 -14.41,-9.7265 l 0,34.7695 -14.308,-1.0898 0,-3.0821 c 6.949,0 7.75,-0.6914 7.75,-5.5586 l 0,-51.6601"
             inkscape:connector-curvature="0" />
          <path
             id="path4159"
             style="fill:#000000;fill-opacity:1;fill-rule:nonzero;stroke:none"
             d="m 279.078,40.5508 c 0,2.8906 -2.387,5.2695 -5.269,5.2695 -2.887,0 -5.27,-2.3711 -5.27,-5.2695 0,-2.8711 2.383,-5.2696 5.27,-5.2696 2.882,0 5.269,2.3907 5.269,5.2696 z m 0,-32.28127 c 0,2.87887 -2.387,5.26957 -5.269,5.26957 -2.887,0 -5.27,-2.3907 -5.27,-5.26957 0,-2.87109 2.383,-5.26953 5.27,-5.26953 2.882,0 5.269,2.39062 5.269,5.26953"
             inkscape:connector-curvature="0" />
        </g>
      </g>
    </g>
  </g>
</svg>
